ISO-10303-21;
HEADER;
FILE_DESCRIPTION (( 'STEP AP203' ),
    '1' );
FILE_NAME ('Lab_10_beam_w_acc.STEP',
    '2018-11-18T04:14:02',
    ( '' ),
    ( '' ),
    'SwSTEP 2.0',
    'SolidWorks 2017',
    '' );
FILE_SCHEMA (( 'CONFIG_CONTROL_DESIGN' ));
ENDSEC;

DATA;
#1 = ORIENTED_EDGE ( 'NONE', *, *, #21, .T. ) ;
#2 = AXIS2_PLACEMENT_3D ( 'NONE', #207, #178, #6 ) ;
#3 = VECTOR ( 'NONE', #198, 39.37007874015748100 ) ;
#4 = VERTEX_POINT ( 'NONE', #279 ) ;
#5 = DIRECTION ( 'NONE',  ( 0.0000000000000000000, 1.000000000000000000, 0.0000000000000000000 ) ) ;
#6 = DIRECTION ( 'NONE',  ( 0.0000000000000000000, 0.0000000000000000000, 1.000000000000000000 ) ) ;
#7 = CARTESIAN_POINT ( 'NONE',  ( 0.0000000000000000000, 0.0000000000000000000, 1.000000000000000000 ) ) ;
#8 = ADVANCED_FACE ( 'NONE', ( #74 ), #157, .F. ) ;
#9 = ORIENTED_EDGE ( 'NONE', *, *, #161, .T. ) ;
#10 = CARTESIAN_POINT ( 'NONE',  ( 10.40000000000000000, 0.3749999999999999400, 0.5000000000000000000 ) ) ;
#11 = AXIS2_PLACEMENT_3D ( 'NONE', #211, #94, #93 ) ;
#12 = DIRECTION ( 'NONE',  ( 0.0000000000000000000, 0.0000000000000000000, -1.000000000000000000 ) ) ;
#13 = DIRECTION ( 'NONE',  ( 0.0000000000000000000, 1.000000000000000000, 0.0000000000000000000 ) ) ;
#14 = DIRECTION ( 'NONE',  ( 0.0000000000000000000, 0.0000000000000000000, 1.000000000000000000 ) ) ;
#15 = VECTOR ( 'NONE', #82, 39.37007874015748100 ) ;
#16 = CC_DESIGN_APPROVAL ( #65, ( #318 ) ) ;
#17 = DIRECTION ( 'NONE',  ( -0.0000000000000000000, -1.000000000000000000, -0.0000000000000000000 ) ) ;
#18 = PERSON_AND_ORGANIZATION_ROLE ( 'creator' ) ;
#19 = FACE_BOUND ( 'NONE', #249, .T. ) ;
#20 = ORIENTED_EDGE ( 'NONE', *, *, #90, .T. ) ;
#21 = EDGE_CURVE ( 'NONE', #133, #267, #81, .T. ) ;
#22 = PLANE ( 'NONE',  #145 ) ;
#23 = SHAPE_DEFINITION_REPRESENTATION ( #212, #131 ) ;
#24 = CYLINDRICAL_SURFACE ( 'NONE', #306, 0.3999999999999993600 ) ;
#25 = LOCAL_TIME ( 22, 14, 2.000000000000000000, #50 ) ;
#26 = CC_DESIGN_PERSON_AND_ORGANIZATION_ASSIGNMENT ( #296, #268, ( #104 ) ) ;
#27 = LENGTH_MEASURE_WITH_UNIT ( LENGTH_MEASURE( 0.02539999999999999900 ), #244 );
#28 = EDGE_LOOP ( 'NONE', ( #143, #298, #130, #282 ) ) ;
#29 = EDGE_CURVE ( 'NONE', #176, #289, #271, .T. ) ;
#30 = AXIS2_PLACEMENT_3D ( 'NONE', #172, #70, #291 ) ;
#31 = LINE ( 'NONE', #316, #41 ) ;
#32 = VERTEX_POINT ( 'NONE', #134 ) ;
#33 = ADVANCED_FACE ( 'NONE', ( #277 ), #160, .T. ) ;
#34 = CARTESIAN_POINT ( 'NONE',  ( 0.0000000000000000000, 0.1250000000000000000, 0.0000000000000000000 ) ) ;
#35 = CARTESIAN_POINT ( 'NONE',  ( 10.40000000000000000, 0.1250000000000000000, 0.1000000000000006400 ) ) ;
#36 = DATE_AND_TIME ( #132, #173 ) ;
#37 = LINE ( 'NONE', #263, #174 ) ;
#38 = DIRECTION ( 'NONE',  ( -0.0000000000000000000, -1.000000000000000000, -0.0000000000000000000 ) ) ;
#39 = CARTESIAN_POINT ( 'NONE',  ( 0.0000000000000000000, 0.0000000000000000000, 1.000000000000000000 ) ) ;
#40 = DIRECTION ( 'NONE',  ( -0.0000000000000000000, -0.0000000000000000000, -1.000000000000000000 ) ) ;
#41 = VECTOR ( 'NONE', #100, 39.37007874015748100 ) ;
#42 = CARTESIAN_POINT ( 'NONE',  ( 10.40000000000000000, 0.3749999999999999400, 0.8999999999999994700 ) ) ;
#43 = ORIENTED_EDGE ( 'NONE', *, *, #295, .F. ) ;
#44 = SECURITY_CLASSIFICATION_LEVEL ( 'unclassified' ) ;
#45 = APPLICATION_CONTEXT ( 'configuration controlled 3d designs of mechanical parts and assemblies' ) ;
#46 = MECHANICAL_CONTEXT ( 'NONE', #171, 'mechanical' ) ;
#47 = FACE_OUTER_BOUND ( 'NONE', #170, .T. ) ;
#48 = ORIENTED_EDGE ( 'NONE', *, *, #227, .T. ) ;
#49 = AXIS2_PLACEMENT_3D ( 'NONE', #284, #64, #14 ) ;
#50 = COORDINATED_UNIVERSAL_TIME_OFFSET ( 6, 0, .BEHIND. ) ;
#51 = PERSON_AND_ORGANIZATION ( #52, #222 ) ;
#52 = PERSON ( 'UNSPECIFIED', 'UNSPECIFIED', 'UNSPECIFIED', ('UNSPECIFIED'), ('UNSPECIFIED'), ('UNSPECIFIED') ) ;
#53 = EDGE_CURVE ( 'NONE', #267, #264, #232, .T. ) ;
#54 = APPROVAL_DATE_TIME ( #275, #203 ) ;
#55 = CARTESIAN_POINT ( 'NONE',  ( 0.0000000000000000000, 0.0000000000000000000, 0.0000000000000000000 ) ) ;
#56 = EDGE_CURVE ( 'NONE', #32, #4, #248, .T. ) ;
#57 = CALENDAR_DATE ( 2018, 17, 11 ) ;
#58 = EDGE_LOOP ( 'NONE', ( #151, #129, #99, #274 ) ) ;
#59 = ADVANCED_FACE ( 'NONE', ( #19, #273 ), #278, .F. ) ;
#60 = APPROVAL_DATE_TIME ( #311, #65 ) ;
#61 = EDGE_LOOP ( 'NONE', ( #155, #305, #253, #67 ) ) ;
#62 = DIRECTION ( 'NONE',  ( -0.0000000000000000000, -1.000000000000000000, -0.0000000000000000000 ) ) ;
#63 = DIRECTION ( 'NONE',  ( -0.0000000000000000000, -1.000000000000000000, -0.0000000000000000000 ) ) ;
#64 = DIRECTION ( 'NONE',  ( 0.0000000000000000000, 1.000000000000000000, 0.0000000000000000000 ) ) ;
#65 = APPROVAL ( #313, 'UNSPECIFIED' ) ;
#66 = VECTOR ( 'NONE', #141, 39.37007874015748100 ) ;
#67 = ORIENTED_EDGE ( 'NONE', *, *, #320, .T. ) ;
#68 = CARTESIAN_POINT ( 'NONE',  ( 0.0000000000000000000, 0.1250000000000000000, 1.000000000000000000 ) ) ;
#69 = DESIGN_CONTEXT ( 'detailed design', #45, 'design' ) ;
#70 = DIRECTION ( 'NONE',  ( 0.0000000000000000000, 0.0000000000000000000, 1.000000000000000000 ) ) ;
#71 = DATE_TIME_ROLE ( 'classification_date' ) ;
#72 = AXIS2_PLACEMENT_3D ( 'NONE', #204, #158, #303 ) ;
#73 = PERSON_AND_ORGANIZATION_ROLE ( 'creator' ) ;
#74 = FACE_OUTER_BOUND ( 'NONE', #136, .T. ) ;
#75 = APPROVAL_STATUS ( 'not_yet_approved' ) ;
#76 = CYLINDRICAL_SURFACE ( 'NONE', #111, 0.3999999999999993600 ) ;
#77 = ORIENTED_EDGE ( 'NONE', *, *, #110, .T. ) ;
#78 = ORIENTED_EDGE ( 'NONE', *, *, #320, .F. ) ;
#79 = EDGE_CURVE ( 'NONE', #148, #197, #304, .T. ) ;
#80 = PERSON_AND_ORGANIZATION ( #52, #222 ) ;
#81 = LINE ( 'NONE', #229, #15 ) ;
#82 = DIRECTION ( 'NONE',  ( -0.0000000000000000000, -1.000000000000000000, -0.0000000000000000000 ) ) ;
#83 = CC_DESIGN_DATE_AND_TIME_ASSIGNMENT ( #317, #101, ( #318 ) ) ;
#84 = DIRECTION ( 'NONE',  ( -1.000000000000000000, 0.0000000000000000000, -0.0000000000000000000 ) ) ;
#85 = ORIENTED_EDGE ( 'NONE', *, *, #245, .F. ) ;
#86 = CARTESIAN_POINT ( 'NONE',  ( 10.40000000000000000, 0.1250000000000000000, 0.8999999999999994700 ) ) ;
#87 = ADVANCED_FACE ( 'NONE', ( #107 ), #261, .F. ) ;
#88 = CARTESIAN_POINT ( 'NONE',  ( 0.0000000000000000000, 0.1250000000000000000, 1.000000000000000000 ) ) ;
#89 = PLANE ( 'NONE',  #11 ) ;
#90 = EDGE_CURVE ( 'NONE', #256, #185, #297, .T. ) ;
#91 = PERSON_AND_ORGANIZATION ( #52, #222 ) ;
#92 = PERSON_AND_ORGANIZATION ( #52, #222 ) ;
#93 = DIRECTION ( 'NONE',  ( 0.0000000000000000000, -0.0000000000000000000, 1.000000000000000000 ) ) ;
#94 = DIRECTION ( 'NONE',  ( 0.0000000000000000000, 1.000000000000000000, 0.0000000000000000000 ) ) ;
#95 = EDGE_CURVE ( 'NONE', #197, #264, #247, .T. ) ;
#96 =( GEOMETRIC_REPRESENTATION_CONTEXT ( 3 ) GLOBAL_UNCERTAINTY_ASSIGNED_CONTEXT ( ( #97 ) ) GLOBAL_UNIT_ASSIGNED_CONTEXT ( ( #126, #146, #128 ) ) REPRESENTATION_CONTEXT ( 'NONE', 'WORKASPACE' ) );
#97 = UNCERTAINTY_MEASURE_WITH_UNIT (LENGTH_MEASURE( 1.000000000000000100E-005 ), #126, 'distance_accuracy_value', 'NONE');
#98 = APPROVAL_STATUS ( 'not_yet_approved' ) ;
#99 = ORIENTED_EDGE ( 'NONE', *, *, #108, .F. ) ;
#100 = DIRECTION ( 'NONE',  ( 1.000000000000000000, 0.0000000000000000000, 0.0000000000000000000 ) ) ;
#101 = DATE_TIME_ROLE ( 'creation_date' ) ;
#102 = CARTESIAN_POINT ( 'NONE',  ( 0.0000000000000000000, 0.0000000000000000000, 1.000000000000000000 ) ) ;
#103 = AXIS2_PLACEMENT_3D ( 'NONE', #55, #231, #109 ) ;
#104 = PRODUCT_DEFINITION_FORMATION_WITH_SPECIFIED_SOURCE ( 'ANY', '', #213, .NOT_KNOWN. ) ;
#105 = FACE_OUTER_BOUND ( 'NONE', #106, .T. ) ;
#106 = EDGE_LOOP ( 'NONE', ( #43, #138, #219, #20 ) ) ;
#107 = FACE_OUTER_BOUND ( 'NONE', #61, .T. ) ;
#108 = EDGE_CURVE ( 'NONE', #242, #148, #237, .T. ) ;
#109 = DIRECTION ( 'NONE',  ( -1.000000000000000000, 0.0000000000000000000, -0.0000000000000000000 ) ) ;
#110 = EDGE_CURVE ( 'NONE', #4, #148, #169, .T. ) ;
#111 = AXIS2_PLACEMENT_3D ( 'NONE', #119, #17, #127 ) ;
#112 = DIRECTION ( 'NONE',  ( -0.0000000000000000000, -0.0000000000000000000, -1.000000000000000000 ) ) ;
#113 = VECTOR ( 'NONE', #209, 39.37007874015748100 ) ;
#114 = ORIENTED_EDGE ( 'NONE', *, *, #56, .T. ) ;
#115 = ADVANCED_FACE ( 'NONE', ( #105 ), #24, .T. ) ;
#116 = CARTESIAN_POINT ( 'NONE',  ( 10.40000000000000000, 0.1250000000000000000, 0.5000000000000000000 ) ) ;
#117 = DIRECTION ( 'NONE',  ( 0.0000000000000000000, 0.0000000000000000000, 1.000000000000000000 ) ) ;
#118 = AXIS2_PLACEMENT_3D ( 'NONE', #116, #190, #165 ) ;
#119 = CARTESIAN_POINT ( 'NONE',  ( 10.40000000000000000, 0.3749999999999999400, 0.5000000000000000000 ) ) ;
#120 = COORDINATED_UNIVERSAL_TIME_OFFSET ( 6, 0, .BEHIND. ) ;
#121 = CARTESIAN_POINT ( 'NONE',  ( 10.40000000000000000, 0.1250000000000000000, 0.5000000000000000000 ) ) ;
#122 = CC_DESIGN_PERSON_AND_ORGANIZATION_ASSIGNMENT ( #80, #18, ( #104 ) ) ;
#123 = CIRCLE ( 'NONE', #49, 0.3999999999999994100 ) ;
#124 = DIRECTION ( 'NONE',  ( -0.0000000000000000000, -0.0000000000000000000, -1.000000000000000000 ) ) ;
#125 = ORIENTED_EDGE ( 'NONE', *, *, #90, .F. ) ;
#126 =( CONVERSION_BASED_UNIT ( 'INCH', #27 ) LENGTH_UNIT ( ) NAMED_UNIT ( #210 ) );
#127 = DIRECTION ( 'NONE',  ( 0.0000000000000000000, 0.0000000000000000000, -1.000000000000000000 ) ) ;
#128 =( NAMED_UNIT ( * ) SI_UNIT ( $, .STERADIAN. ) SOLID_ANGLE_UNIT ( ) );
#129 = ORIENTED_EDGE ( 'NONE', *, *, #79, .F. ) ;
#130 = ORIENTED_EDGE ( 'NONE', *, *, #21, .F. ) ;
#131 = ADVANCED_BREP_SHAPE_REPRESENTATION ( 'Lab_10_beam_w_acc', ( #152, #30 ), #96 ) ;
#132 = CALENDAR_DATE ( 2018, 17, 11 ) ;
#133 = VERTEX_POINT ( 'NONE', #68 ) ;
#134 = CARTESIAN_POINT ( 'NONE',  ( 10.81750000000000100, 0.0000000000000000000, 1.000000000000000000 ) ) ;
#135 = COORDINATED_UNIVERSAL_TIME_OFFSET ( 6, 0, .BEHIND. ) ;
#136 = EDGE_LOOP ( 'NONE', ( #1, #9, #114, #205 ) ) ;
#137 = SECURITY_CLASSIFICATION ( '', '', #44 ) ;
#138 = ORIENTED_EDGE ( 'NONE', *, *, #29, .F. ) ;
#139 = CARTESIAN_POINT ( 'NONE',  ( 0.0000000000000000000, 0.0000000000000000000, 1.000000000000000000 ) ) ;
#140 = EDGE_CURVE ( 'NONE', #289, #176, #123, .T. ) ;
#141 = DIRECTION ( 'NONE',  ( -0.0000000000000000000, -0.0000000000000000000, -1.000000000000000000 ) ) ;
#142 = PERSON_AND_ORGANIZATION ( #52, #222 ) ;
#143 = ORIENTED_EDGE ( 'NONE', *, *, #95, .T. ) ;
#144 = EDGE_CURVE ( 'NONE', #133, #197, #175, .T. ) ;
#145 = AXIS2_PLACEMENT_3D ( 'NONE', #102, #243, #265 ) ;
#146 =( NAMED_UNIT ( * ) PLANE_ANGLE_UNIT ( ) SI_UNIT ( $, .RADIAN. ) );
#147 = LOCAL_TIME ( 22, 14, 2.000000000000000000, #272 ) ;
#148 = VERTEX_POINT ( 'NONE', #310 ) ;
#149 = APPROVAL_ROLE ( '' ) ;
#150 = VECTOR ( 'NONE', #124, 39.37007874015748100 ) ;
#151 = ORIENTED_EDGE ( 'NONE', *, *, #95, .F. ) ;
#152 = MANIFOLD_SOLID_BREP ( 'Boss-Extrude2', #191 ) ;
#153 = CC_DESIGN_APPROVAL ( #179, ( #137 ) ) ;
#154 = VECTOR ( 'NONE', #38, 39.37007874015748100 ) ;
#155 = ORIENTED_EDGE ( 'NONE', *, *, #108, .T. ) ;
#156 = COORDINATED_UNIVERSAL_TIME_OFFSET ( 6, 0, .BEHIND. ) ;
#157 = PLANE ( 'NONE',  #292 ) ;
#158 = DIRECTION ( 'NONE',  ( 0.0000000000000000000, -1.000000000000000000, 0.0000000000000000000 ) ) ;
#159 = EDGE_LOOP ( 'NONE', ( #181, #215, #48, #186 ) ) ;
#160 = PLANE ( 'NONE',  #103 ) ;
#161 = EDGE_CURVE ( 'NONE', #267, #32, #301, .T. ) ;
#162 = DIRECTION ( 'NONE',  ( 1.000000000000000000, 0.0000000000000000000, 0.0000000000000000000 ) ) ;
#163 = VECTOR ( 'NONE', #13, 39.37007874015748100 ) ;
#164 = CARTESIAN_POINT ( 'NONE',  ( 0.0000000000000000000, 0.1250000000000000000, 0.0000000000000000000 ) ) ;
#165 = DIRECTION ( 'NONE',  ( 0.0000000000000000000, 0.0000000000000000000, -1.000000000000000000 ) ) ;
#166 = PERSON_AND_ORGANIZATION ( #52, #222 ) ;
#167 = DIRECTION ( 'NONE',  ( 1.000000000000000000, 0.0000000000000000000, 0.0000000000000000000 ) ) ;
#168 = PRODUCT_RELATED_PRODUCT_CATEGORY ( 'detail', '', ( #213 ) ) ;
#169 = LINE ( 'NONE', #308, #180 ) ;
#170 = EDGE_LOOP ( 'NONE', ( #208, #315 ) ) ;
#171 = APPLICATION_CONTEXT ( 'configuration controlled 3d designs of mechanical parts and assemblies' ) ;
#172 = CARTESIAN_POINT ( 'NONE',  ( 0.0000000000000000000, 0.0000000000000000000, 0.0000000000000000000 ) ) ;
#173 = LOCAL_TIME ( 22, 14, 2.000000000000000000, #156 ) ;
#174 = VECTOR ( 'NONE', #62, 39.37007874015748100 ) ;
#175 = LINE ( 'NONE', #88, #66 ) ;
#176 = VERTEX_POINT ( 'NONE', #309 ) ;
#177 = CALENDAR_DATE ( 2018, 17, 11 ) ;
#178 = DIRECTION ( 'NONE',  ( 0.0000000000000000000, 1.000000000000000000, 0.0000000000000000000 ) ) ;
#179 = APPROVAL ( #98, 'UNSPECIFIED' ) ;
#180 = VECTOR ( 'NONE', #40, 39.37007874015748100 ) ;
#181 = ORIENTED_EDGE ( 'NONE', *, *, #140, .F. ) ;
#182 = DIRECTION ( 'NONE',  ( 0.0000000000000000000, 0.0000000000000000000, -1.000000000000000000 ) ) ;
#183 = ADVANCED_FACE ( 'NONE', ( #47 ), #89, .T. ) ;
#184 = CARTESIAN_POINT ( 'NONE',  ( 10.81750000000000100, 0.0000000000000000000, 0.0000000000000000000 ) ) ;
#185 = VERTEX_POINT ( 'NONE', #86 ) ;
#186 = ORIENTED_EDGE ( 'NONE', *, *, #206, .F. ) ;
#187 = DIRECTION ( 'NONE',  ( -0.0000000000000000000, 1.000000000000000000, -0.0000000000000000000 ) ) ;
#188 = CARTESIAN_POINT ( 'NONE',  ( 0.0000000000000000000, 0.1250000000000000000, 1.000000000000000000 ) ) ;
#189 = APPROVAL_PERSON_ORGANIZATION ( #142, #65, #218 ) ;
#190 = DIRECTION ( 'NONE',  ( -0.0000000000000000000, 1.000000000000000000, -0.0000000000000000000 ) ) ;
#191 = CLOSED_SHELL ( 'NONE', ( #257, #233, #281, #87, #59, #8, #33, #115, #183 ) ) ;
#192 = PERSON_AND_ORGANIZATION_ROLE ( 'classification_officer' ) ;
#193 = APPROVAL_PERSON_ORGANIZATION ( #166, #203, #246 ) ;
#194 = CARTESIAN_POINT ( 'NONE',  ( 0.0000000000000000000, 0.0000000000000000000, 0.0000000000000000000 ) ) ;
#195 = PERSON_AND_ORGANIZATION_ROLE ( 'design_owner' ) ;
#196 = EDGE_LOOP ( 'NONE', ( #200, #226, #85, #77 ) ) ;
#197 = VERTEX_POINT ( 'NONE', #164 ) ;
#198 = DIRECTION ( 'NONE',  ( -0.0000000000000000000, -1.000000000000000000, -0.0000000000000000000 ) ) ;
#199 = CARTESIAN_POINT ( 'NONE',  ( 10.40000000000000000, 0.3749999999999999400, 0.8999999999999994700 ) ) ;
#200 = ORIENTED_EDGE ( 'NONE', *, *, #79, .T. ) ;
#201 = CC_DESIGN_PERSON_AND_ORGANIZATION_ASSIGNMENT ( #269, #192, ( #137 ) ) ;
#202 = EDGE_LOOP ( 'NONE', ( #312, #78, #251, #314 ) ) ;
#203 = APPROVAL ( #75, 'UNSPECIFIED' ) ;
#204 = CARTESIAN_POINT ( 'NONE',  ( 0.0000000000000000000, 0.1250000000000000000, 1.000000000000000000 ) ) ;
#205 = ORIENTED_EDGE ( 'NONE', *, *, #245, .T. ) ;
#206 = EDGE_CURVE ( 'NONE', #176, #256, #37, .T. ) ;
#207 = CARTESIAN_POINT ( 'NONE',  ( 10.40000000000000000, 0.3749999999999999400, 0.5000000000000000000 ) ) ;
#208 = ORIENTED_EDGE ( 'NONE', *, *, #29, .T. ) ;
#209 = DIRECTION ( 'NONE',  ( -1.000000000000000000, -0.0000000000000000000, -0.0000000000000000000 ) ) ;
#210 = DIMENSIONAL_EXPONENTS ( 1.000000000000000000, 0.0000000000000000000, 0.0000000000000000000, 0.0000000000000000000, 0.0000000000000000000, 0.0000000000000000000, 0.0000000000000000000 ) ;
#211 = CARTESIAN_POINT ( 'NONE',  ( 10.40000000000000000, 0.3749999999999999400, 0.5000000000000000000 ) ) ;
#212 = PRODUCT_DEFINITION_SHAPE ( 'NONE', 'NONE',  #318 ) ;
#213 = PRODUCT ( 'Lab_10_beam_w_acc', 'Lab_10_beam_w_acc', '', ( #46 ) ) ;
#214 = FACE_OUTER_BOUND ( 'NONE', #28, .T. ) ;
#215 = ORIENTED_EDGE ( 'NONE', *, *, #295, .T. ) ;
#216 = CARTESIAN_POINT ( 'NONE',  ( 10.81750000000000100, 0.0000000000000000000, 0.0000000000000000000 ) ) ;
#217 = CC_DESIGN_PERSON_AND_ORGANIZATION_ASSIGNMENT ( #51, #73, ( #318 ) ) ;
#218 = APPROVAL_ROLE ( '' ) ;
#219 = ORIENTED_EDGE ( 'NONE', *, *, #206, .T. ) ;
#220 = APPLICATION_PROTOCOL_DEFINITION ( 'international standard', 'config_control_design', 1994, #45 ) ;
#221 = CARTESIAN_POINT ( 'NONE',  ( 10.81750000000000100, 0.0000000000000000000, 1.000000000000000000 ) ) ;
#222 = ORGANIZATION ( 'UNSPECIFIED', 'UNSPECIFIED', '' ) ;
#223 = CC_DESIGN_APPROVAL ( #203, ( #104 ) ) ;
#224 = CALENDAR_DATE ( 2018, 17, 11 ) ;
#225 = LINE ( 'NONE', #42, #3 ) ;
#226 = ORIENTED_EDGE ( 'NONE', *, *, #144, .F. ) ;
#227 = EDGE_CURVE ( 'NONE', #185, #256, #294, .T. ) ;
#228 = VECTOR ( 'NONE', #5, 39.37007874015748100 ) ;
#229 = CARTESIAN_POINT ( 'NONE',  ( 0.0000000000000000000, 0.0000000000000000000, 1.000000000000000000 ) ) ;
#230 = CALENDAR_DATE ( 2018, 17, 11 ) ;
#231 = DIRECTION ( 'NONE',  ( 0.0000000000000000000, 0.0000000000000000000, -1.000000000000000000 ) ) ;
#232 = LINE ( 'NONE', #7, #241 ) ;
#233 = ADVANCED_FACE ( 'NONE', ( #214 ), #260, .F. ) ;
#234 = AXIS2_PLACEMENT_3D ( 'NONE', #286, #258, #117 ) ;
#235 = DIRECTION ( 'NONE',  ( 0.0000000000000000000, 0.0000000000000000000, -1.000000000000000000 ) ) ;
#236 = APPROVAL_PERSON_ORGANIZATION ( #91, #179, #149 ) ;
#237 = LINE ( 'NONE', #184, #163 ) ;
#238 = CC_DESIGN_SECURITY_CLASSIFICATION ( #137, ( #104 ) ) ;
#239 = LOCAL_TIME ( 22, 14, 2.000000000000000000, #120 ) ;
#240 = DIRECTION ( 'NONE',  ( -1.000000000000000000, -0.0000000000000000000, -0.0000000000000000000 ) ) ;
#241 = VECTOR ( 'NONE', #112, 39.37007874015748100 ) ;
#242 = VERTEX_POINT ( 'NONE', #216 ) ;
#243 = DIRECTION ( 'NONE',  ( 0.0000000000000000000, 1.000000000000000000, 0.0000000000000000000 ) ) ;
#244 =( LENGTH_UNIT ( ) NAMED_UNIT ( * ) SI_UNIT ( $, .METRE. ) );
#245 = EDGE_CURVE ( 'NONE', #4, #133, #287, .T. ) ;
#246 = APPROVAL_ROLE ( '' ) ;
#247 = LINE ( 'NONE', #307, #154 ) ;
#248 = LINE ( 'NONE', #283, #228 ) ;
#249 = EDGE_LOOP ( 'NONE', ( #125, #255 ) ) ;
#250 = CC_DESIGN_DATE_AND_TIME_ASSIGNMENT ( #300, #71, ( #137 ) ) ;
#251 = ORIENTED_EDGE ( 'NONE', *, *, #161, .F. ) ;
#252 = LINE ( 'NONE', #221, #150 ) ;
#253 = ORIENTED_EDGE ( 'NONE', *, *, #56, .F. ) ;
#254 = CARTESIAN_POINT ( 'NONE',  ( 0.0000000000000000000, 0.0000000000000000000, 1.000000000000000000 ) ) ;
#255 = ORIENTED_EDGE ( 'NONE', *, *, #227, .F. ) ;
#256 = VERTEX_POINT ( 'NONE', #35 ) ;
#257 = ADVANCED_FACE ( 'NONE', ( #270 ), #76, .T. ) ;
#258 = DIRECTION ( 'NONE',  ( -1.000000000000000000, 0.0000000000000000000, 0.0000000000000000000 ) ) ;
#259 = EDGE_CURVE ( 'NONE', #264, #242, #31, .T. ) ;
#260 = PLANE ( 'NONE',  #285 ) ;
#261 = PLANE ( 'NONE',  #234 ) ;
#262 = FACE_OUTER_BOUND ( 'NONE', #202, .T. ) ;
#263 = CARTESIAN_POINT ( 'NONE',  ( 10.40000000000000000, 0.3749999999999999400, 0.1000000000000006400 ) ) ;
#264 = VERTEX_POINT ( 'NONE', #194 ) ;
#265 = DIRECTION ( 'NONE',  ( 0.0000000000000000000, -0.0000000000000000000, 1.000000000000000000 ) ) ;
#266 = CARTESIAN_POINT ( 'NONE',  ( 0.0000000000000000000, 0.0000000000000000000, 1.000000000000000000 ) ) ;
#267 = VERTEX_POINT ( 'NONE', #266 ) ;
#268 = PERSON_AND_ORGANIZATION_ROLE ( 'design_supplier' ) ;
#269 = PERSON_AND_ORGANIZATION ( #52, #222 ) ;
#270 = FACE_OUTER_BOUND ( 'NONE', #159, .T. ) ;
#271 = CIRCLE ( 'NONE', #2, 0.3999999999999994100 ) ;
#272 = COORDINATED_UNIVERSAL_TIME_OFFSET ( 6, 0, .BEHIND. ) ;
#273 = FACE_OUTER_BOUND ( 'NONE', #196, .T. ) ;
#274 = ORIENTED_EDGE ( 'NONE', *, *, #259, .F. ) ;
#275 = DATE_AND_TIME ( #177, #25 ) ;
#276 = VECTOR ( 'NONE', #167, 39.37007874015748100 ) ;
#277 = FACE_OUTER_BOUND ( 'NONE', #58, .T. ) ;
#278 = PLANE ( 'NONE',  #72 ) ;
#279 = CARTESIAN_POINT ( 'NONE',  ( 10.81750000000000100, 0.1250000000000000000, 1.000000000000000000 ) ) ;
#280 = VECTOR ( 'NONE', #240, 39.37007874015748100 ) ;
#281 = ADVANCED_FACE ( 'NONE', ( #262 ), #22, .F. ) ;
#282 = ORIENTED_EDGE ( 'NONE', *, *, #144, .T. ) ;
#283 = CARTESIAN_POINT ( 'NONE',  ( 10.81750000000000100, 0.0000000000000000000, 1.000000000000000000 ) ) ;
#284 = CARTESIAN_POINT ( 'NONE',  ( 10.40000000000000000, 0.3749999999999999400, 0.5000000000000000000 ) ) ;
#285 = AXIS2_PLACEMENT_3D ( 'NONE', #139, #162, #12 ) ;
#286 = CARTESIAN_POINT ( 'NONE',  ( 10.81750000000000100, 0.0000000000000000000, 1.000000000000000000 ) ) ;
#287 = LINE ( 'NONE', #188, #280 ) ;
#288 = DIRECTION ( 'NONE',  ( 0.0000000000000000000, 0.0000000000000000000, -1.000000000000000000 ) ) ;
#289 = VERTEX_POINT ( 'NONE', #199 ) ;
#290 = APPLICATION_PROTOCOL_DEFINITION ( 'international standard', 'config_control_design', 1994, #171 ) ;
#291 = DIRECTION ( 'NONE',  ( 1.000000000000000000, 0.0000000000000000000, 0.0000000000000000000 ) ) ;
#292 = AXIS2_PLACEMENT_3D ( 'NONE', #254, #182, #84 ) ;
#293 = APPROVAL_DATE_TIME ( #36, #179 ) ;
#294 = CIRCLE ( 'NONE', #118, 0.3999999999999993600 ) ;
#295 = EDGE_CURVE ( 'NONE', #289, #185, #225, .T. ) ;
#296 = PERSON_AND_ORGANIZATION ( #52, #222 ) ;
#297 = CIRCLE ( 'NONE', #299, 0.3999999999999993600 ) ;
#298 = ORIENTED_EDGE ( 'NONE', *, *, #53, .F. ) ;
#299 = AXIS2_PLACEMENT_3D ( 'NONE', #121, #187, #235 ) ;
#300 = DATE_AND_TIME ( #230, #239 ) ;
#301 = LINE ( 'NONE', #39, #276 ) ;
#302 = CC_DESIGN_PERSON_AND_ORGANIZATION_ASSIGNMENT ( #92, #195, ( #213 ) ) ;
#303 = DIRECTION ( 'NONE',  ( 0.0000000000000000000, -0.0000000000000000000, -1.000000000000000000 ) ) ;
#304 = LINE ( 'NONE', #34, #113 ) ;
#305 = ORIENTED_EDGE ( 'NONE', *, *, #110, .F. ) ;
#306 = AXIS2_PLACEMENT_3D ( 'NONE', #10, #63, #288 ) ;
#307 = CARTESIAN_POINT ( 'NONE',  ( 0.0000000000000000000, 0.0000000000000000000, 0.0000000000000000000 ) ) ;
#308 = CARTESIAN_POINT ( 'NONE',  ( 10.81750000000000100, 0.1250000000000000000, 1.000000000000000000 ) ) ;
#309 = CARTESIAN_POINT ( 'NONE',  ( 10.40000000000000000, 0.3749999999999999400, 0.1000000000000006400 ) ) ;
#310 = CARTESIAN_POINT ( 'NONE',  ( 10.81750000000000100, 0.1250000000000000000, 0.0000000000000000000 ) ) ;
#311 = DATE_AND_TIME ( #57, #319 ) ;
#312 = ORIENTED_EDGE ( 'NONE', *, *, #259, .T. ) ;
#313 = APPROVAL_STATUS ( 'not_yet_approved' ) ;
#314 = ORIENTED_EDGE ( 'NONE', *, *, #53, .T. ) ;
#315 = ORIENTED_EDGE ( 'NONE', *, *, #140, .T. ) ;
#316 = CARTESIAN_POINT ( 'NONE',  ( 0.0000000000000000000, 0.0000000000000000000, 0.0000000000000000000 ) ) ;
#317 = DATE_AND_TIME ( #224, #147 ) ;
#318 = PRODUCT_DEFINITION ( 'UNKNOWN', '', #104, #69 ) ;
#319 = LOCAL_TIME ( 22, 14, 2.000000000000000000, #135 ) ;
#320 = EDGE_CURVE ( 'NONE', #32, #242, #252, .T. ) ;
ENDSEC;
END-ISO-10303-21;
